<?xml version="1.0" standalone="no"?>
<!DOCTYPE svg PUBLIC "-//W3C//DTD SVG 20010904//EN"
 "http://www.w3.org/TR/2001/REC-SVG-20010904/DTD/svg10.dtd">
<svg version="1.0" xmlns="http://www.w3.org/2000/svg"
 width="700.000000pt" height="700.000000pt" viewBox="0 0 700.000000 700.000000"
 preserveAspectRatio="xMidYMid meet">
<metadata>
Created by potrace 1.14, written by Peter Selinger 2001-2017
</metadata>
<g transform="translate(0.000000,700.000000) scale(0.100000,-0.100000)"
fill="#000000" stroke="none">
<path d="M2642 6080 c-41 -19 -78 -61 -105 -120 -8 -19 -70 -183 -137 -365
-66 -181 -123 -337 -127 -345 -3 -8 -7 -19 -9 -25 -1 -5 -16 -48 -34 -95 -40
-106 -62 -166 -95 -255 -14 -38 -34 -92 -44 -120 -11 -27 -63 -169 -116 -315
-53 -146 -109 -299 -125 -340 -16 -41 -70 -187 -120 -325 -50 -137 -97 -266
-105 -285 -8 -19 -93 -251 -190 -515 -97 -264 -179 -487 -182 -495 -3 -8 -7
-17 -8 -20 0 -3 -11 -31 -23 -63 -12 -32 -22 -59 -22 -61 0 -2 64 23 143 56
215 90 559 199 707 223 19 3 51 10 70 15 45 12 73 17 195 34 148 22 181 25
395 42 19 1 38 3 42 3 3 1 32 81 63 179 31 97 74 229 95 292 21 63 100 304
175 535 76 231 167 510 202 620 89 271 101 293 179 320 68 23 136 -10 174 -85
9 -19 45 -123 79 -230 35 -107 89 -276 121 -375 32 -99 97 -301 145 -450 48
-148 99 -308 115 -355 15 -47 53 -165 85 -263 31 -98 62 -180 68 -182 7 -2 77
-6 157 -9 158 -7 186 -10 335 -32 141 -21 148 -22 265 -50 253 -59 515 -152
718 -254 39 -20 72 -36 72 -35 0 1 -27 76 -61 166 -33 90 -90 243 -125 339
-35 96 -88 243 -119 325 -31 83 -85 231 -121 330 -36 99 -69 189 -74 200 -5
11 -24 63 -44 115 -33 89 -314 854 -342 930 -35 95 -78 214 -149 405 -79 214
-122 332 -170 465 -15 41 -33 89 -40 105 -7 17 -31 82 -54 147 -24 64 -56 135
-73 157 -60 82 9 76 -920 77 -768 1 -830 0 -866 -16z"/>
<path d="M2451 2213 c-23 -98 -26 -132 -25 -298 0 -229 30 -369 117 -542 33
-65 114 -177 141 -195 11 -8 14 -2 36 67 41 130 173 214 315 202 73 -7 121
-26 159 -64 65 -64 85 -146 92 -366 7 -208 37 -316 125 -447 66 -98 162 -187
257 -239 47 -25 59 -23 43 7 -10 19 -29 90 -37 142 -10 57 -4 179 11 234 19
73 89 180 156 240 27 25 105 82 172 127 265 179 339 244 422 369 100 151 151
327 148 510 -2 58 -25 185 -36 197 -3 2 -36 -16 -73 -40 -79 -50 -211 -108
-304 -132 -8 -3 -47 -13 -86 -24 -40 -11 -85 -22 -100 -24 -16 -3 -40 -8 -54
-11 -160 -36 -464 -40 -670 -7 -36 6 -83 13 -105 16 -286 44 -494 135 -635
279 -25 25 -48 46 -52 46 -3 0 -11 -21 -17 -47z"/>
</g>
</svg>
